<svg width="36" height="36" viewBox="0 0 36 36" fill="none" xmlns="http://www.w3.org/2000/svg">
<path d="M7.875 13.8735C7.875 16.7265 9.0225 19.314 10.875 21.2085V31.875C10.874 32.131 10.9388 32.383 11.063 32.6069C11.1872 32.8308 11.3668 33.019 11.5845 33.1537C11.8023 33.2884 12.0509 33.365 12.3067 33.3761C12.5625 33.3873 12.8168 33.3327 13.0455 33.2175L18.375 30.552L23.7045 33.216C23.9326 33.3314 24.1866 33.3861 24.442 33.3748C24.6973 33.3635 24.9455 33.2866 25.1625 33.1515C25.605 32.877 25.875 32.3955 25.875 31.875V21.21C27.7983 19.2525 28.8757 16.6178 28.875 13.8735C28.875 8.085 24.165 3.375 18.375 3.375C12.585 3.375 7.875 8.085 7.875 13.8735ZM19.0455 27.5325C18.8371 27.4282 18.6073 27.3739 18.3743 27.3739C18.1412 27.3739 17.9114 27.4282 17.703 27.5325L13.875 29.448V23.3475C15.2415 23.9985 16.764 24.375 18.375 24.375C19.986 24.375 21.5085 24 22.875 23.3475V29.4465L19.0455 27.5325ZM18.375 6.375C22.509 6.375 25.875 9.738 25.875 13.8735C25.873 15.8622 25.0822 17.7688 23.6762 19.1751C22.2701 20.5815 20.3637 21.3726 18.375 21.375C14.2395 21.375 10.875 18.0105 10.875 13.8735C10.8774 11.8852 11.6684 9.97913 13.0744 8.57336C14.4805 7.16759 16.3867 6.37698 18.375 6.375Z" fill="white"/>
</svg>
