<svg width="32" height="25" viewBox="0 0 32 25" fill="none" xmlns="http://www.w3.org/2000/svg">
<g clip-path="url(#clip0_39_43)">
<path d="M3.31226 9.61538L13.0466 19.6064L8.35913 9.61538H3.31226ZM15.9998 21.2139L21.4529 9.61538H10.5466L15.9998 21.2139ZM8.40601 7.69231L11.5935 1.92308H7.49976L2.99976 7.69231H8.40601ZM18.9529 19.6064L28.6873 9.61538H23.6404L18.9529 19.6064ZM10.6716 7.69231H21.3279L18.1404 1.92308H13.8591L10.6716 7.69231ZM23.5935 7.69231H28.9998L24.4998 1.92308H20.406L23.5935 7.69231ZM25.7966 0.390625L31.7966 8.08293C31.9425 8.26322 32.0102 8.47105 31.9998 8.70643C31.9893 8.94181 31.9008 9.14463 31.7341 9.3149L16.7341 24.6995C16.5466 24.8998 16.3018 25 15.9998 25C15.6977 25 15.4529 24.8998 15.2654 24.6995L0.265385 9.3149C0.0987183 9.14463 0.0101766 8.94181 -0.000240072 8.70643C-0.0106567 8.47105 0.0570516 8.26322 0.202885 8.08293L6.20289 0.390625C6.39039 0.130208 6.65601 0 6.99976 0H24.9998C25.3435 0 25.6091 0.130208 25.7966 0.390625Z" fill="white"/>
</g>
<defs>
<clipPath id="clip0_39_43">
<rect width="32" height="25" fill="white"/>
</clipPath>
</defs>
</svg>
