<svg width="37" height="37" viewBox="0 0 37 37" fill="none" xmlns="http://www.w3.org/2000/svg">
<path d="M4.625 18.5H18.5V20.8125H4.625V18.5ZM2.3125 12.7188H13.875V15.0312H2.3125V12.7188Z" fill="white"/>
<path d="M34.5938 19.2007L31.1251 11.1069C31.0361 10.8989 30.8879 10.7216 30.699 10.597C30.5101 10.4725 30.2888 10.4061 30.0625 10.4062H26.5937V8.09375C26.5937 7.78709 26.4719 7.493 26.2551 7.27616C26.0382 7.05932 25.7441 6.9375 25.4375 6.9375H6.93749V9.25H24.2812V23.7679C23.7544 24.0738 23.2933 24.481 22.9246 24.966C22.5558 25.451 22.2868 26.0042 22.1329 26.5938H14.8671C14.5856 25.5038 13.9164 24.5539 12.9847 23.9221C12.053 23.2903 10.9229 23.02 9.80615 23.1619C8.68942 23.3037 7.66277 23.848 6.91862 24.6926C6.17447 25.5373 5.76392 26.6243 5.76392 27.75C5.76392 28.8757 6.17447 29.9627 6.91862 30.8074C7.66277 31.652 8.68942 32.1963 9.80615 32.3381C10.9229 32.48 12.053 32.2097 12.9847 31.5779C13.9164 30.9461 14.5856 29.9962 14.8671 28.9062H22.1329C22.3845 29.8986 22.9597 30.7787 23.7676 31.4074C24.5755 32.0361 25.57 32.3775 26.5937 32.3775C27.6175 32.3775 28.6119 32.0361 29.4199 31.4074C30.2278 30.7787 30.803 29.8986 31.0546 28.9062H33.5312C33.8379 28.9062 34.132 28.7844 34.3488 28.5676C34.5657 28.3508 34.6875 28.0567 34.6875 27.75V19.6562C34.6875 19.4996 34.6557 19.3446 34.5938 19.2007ZM10.4062 30.0625C9.94887 30.0625 9.50177 29.9269 9.12148 29.6728C8.7412 29.4187 8.4448 29.0575 8.26977 28.635C8.09474 28.2124 8.04895 27.7474 8.13817 27.2989C8.2274 26.8503 8.44765 26.4382 8.77106 26.1148C9.09446 25.7914 9.50651 25.5712 9.95509 25.4819C10.4037 25.3927 10.8686 25.4385 11.2912 25.6135C11.7137 25.7886 12.0749 26.085 12.329 26.4652C12.5831 26.8455 12.7187 27.2926 12.7187 27.75C12.7181 28.3631 12.4743 28.951 12.0407 29.3845C11.6072 29.8181 11.0194 30.0619 10.4062 30.0625ZM26.5937 12.7188H29.2994L31.7784 18.5H26.5937V12.7188ZM26.5937 30.0625C26.1364 30.0625 25.6893 29.9269 25.309 29.6728C24.9287 29.4187 24.6323 29.0575 24.4573 28.635C24.2822 28.2124 24.2364 27.7474 24.3257 27.2989C24.4149 26.8503 24.6351 26.4382 24.9586 26.1148C25.282 25.7914 25.694 25.5712 26.1426 25.4819C26.5912 25.3927 27.0561 25.4385 27.4787 25.6135C27.9012 25.7886 28.2624 26.085 28.5165 26.4652C28.7706 26.8455 28.9062 27.2926 28.9062 27.75C28.9056 28.3631 28.6618 28.951 28.2282 29.3845C27.7947 29.8181 27.2069 30.0619 26.5937 30.0625ZM32.375 26.5938H31.0546C30.7999 25.6033 30.2237 24.7255 29.4164 24.0977C28.6091 23.47 27.6164 23.1278 26.5937 23.125V20.8125H32.375V26.5938Z" fill="white"/>
</svg>
