<svg width="59" height="57" viewBox="0 0 59 57" fill="none" xmlns="http://www.w3.org/2000/svg">
<path d="M2 10.8245C2 8.48407 2.92972 6.23953 4.58462 4.58462C6.23953 2.92972 8.48407 2 10.8245 2H37.2978C39.6382 2 41.8827 2.92972 43.5377 4.58462C45.1926 6.23953 46.1223 8.48407 46.1223 10.8245V33.0154C43.5538 33.0154 41.6385 33.5154 38.6385 36.0154C36.1385 38.5154 35.4772 40.2559 35.1308 42.0154C34.6385 44.5154 34.846 45.0154 34.8383 46.1223H10.8245C8.48407 46.1223 6.23953 45.1926 4.58462 43.5377C2.92972 41.8827 2 39.6382 2 37.2978V10.8245Z" stroke="white" stroke-width="2.5" stroke-linecap="round" stroke-linejoin="round"/>
<path d="M16.3397 21.8551C19.3857 21.8551 21.855 19.3858 21.855 16.3398C21.855 13.2938 19.3857 10.8245 16.3397 10.8245C13.2937 10.8245 10.8244 13.2938 10.8244 16.3398C10.8244 19.3858 13.2937 21.8551 16.3397 21.8551Z" stroke="white" stroke-width="2.5" stroke-linecap="round" stroke-linejoin="round"/>
<path d="M29.6338 25.4312L10.8244 46.1223H34.9159C34.4236 43.0154 36.2732 38.5104 37.6385 37.0154C39.3385 35.1539 40.1385 34.5154 42.6385 33.5154L46.1385 32.5154C46.1385 31.4873 45.6385 32.5154 44.6385 32.5154L36.1506 25.418C35.7363 24.966 35.2322 24.6053 34.6707 24.359C34.1092 24.1126 33.5024 23.9861 32.8893 23.9873C32.2761 23.9886 31.6699 24.1176 31.1094 24.3662C30.5488 24.6148 30.0463 24.9775 29.6338 25.4312Z" stroke="white" stroke-width="2.5" stroke-linecap="round" stroke-linejoin="round"/>
<circle cx="46.1242" cy="44.4592" r="11.238" stroke="white" stroke-width="2.5"/>
<path d="M46.1243 40.6585L46.1243 49.3458M49.925 44.4592L46.1243 40.6585L42.3236 44.4592" stroke="white" stroke-width="2.5" stroke-linecap="round" stroke-linejoin="round"/>
</svg>
