<svg width="65" height="59" viewBox="0 0 65 59" fill="none" xmlns="http://www.w3.org/2000/svg">
<path d="M62.924 37.5747L62.9271 37.5776C64.091 38.6498 63.9937 40.4766 62.8358 41.4193L62.8333 41.4214L45.5095 55.6001C44.4253 56.4852 43.0886 56.959 41.7167 56.959H0.833333C0.541689 56.959 0.25 56.7015 0.25 56.334V45.084C0.25 44.7165 0.541689 44.459 0.833333 44.459H7.18125H7.63208L7.97912 44.1712L13.3065 39.7538C13.3067 39.7537 13.3068 39.7536 13.3069 39.7535C15.4927 37.944 18.2023 36.959 21 36.959H39.3333C40.7783 36.959 41.9784 38.2892 41.7202 39.892C41.5313 41.0586 40.4186 41.959 39.1385 41.959H30.1667C28.4416 41.959 27.0833 43.389 27.0833 45.084C27.0833 46.779 28.4416 48.209 30.1667 48.209H43.7219C45.6816 48.209 47.5779 47.536 49.098 46.2848C49.0986 46.2843 49.0993 46.2837 49.0999 46.2832L59.6841 37.6258L59.6881 37.6225C60.6971 36.7903 62.0956 36.8065 62.924 37.5747Z" stroke="white" stroke-width="2.5"/>
<path d="M18.3249 7.51868H45.2574V23.7612C45.2574 25.28 44.0261 26.5112 42.5074 26.5112H21.0749C19.5561 26.5112 18.3249 25.28 18.3249 23.7612V7.51868Z" stroke="white" stroke-width="2.5"/>
<line x1="24.6478" y1="12.4921" x2="38.8566" y2="12.4921" stroke="white" stroke-width="2.5" stroke-linecap="round"/>
<rect x="16.3041" y="1.25" width="30.9177" height="5.95071" rx="2.75" stroke="white" stroke-width="2.5"/>
</svg>
